<?xml version="1.0" encoding="UTF-8" standalone="no"?>
<!DOCTYPE svg PUBLIC "-//W3C//DTD SVG 1.1//EN"
 "http://www.w3.org/Graphics/SVG/1.1/DTD/svg11.dtd">
<!-- Generated by graphviz version 2.42.3 ()
 -->
<!-- Title: graphname Pages: 1 -->
<svg width="682pt" height="997pt"
 viewBox="0.00 0.00 682.00 997.00" xmlns="http://www.w3.org/2000/svg" xmlns:xlink="http://www.w3.org/1999/xlink">
<g id="graph0" class="graph" transform="scale(1 1) rotate(0) translate(4 993)">
<title>graphname</title>
<polygon fill="#fafafa" stroke="transparent" points="-4,4 -4,-993 678,-993 678,4 -4,4"/>
<g id="clust1" class="cluster">
<title>cluster_google</title>
<polygon fill="#f5f5f5" stroke="#f5f5f5" points="8,-8 8,-981 666,-981 666,-8 8,-8"/>
<text text-anchor="start" x="281" y="-23" font-family="Helvetica,sans-Serif" font-weight="bold" font-size="20.00" fill="#707070">Provider google</text>
</g>
<g id="clust2" class="cluster">
<title>cluster_google_</title>
<polygon fill="#eeeeee" stroke="#eeeeee" points="16,-54 16,-973 658,-973 658,-54 16,-54"/>
<text text-anchor="start" x="333" y="-58.2" font-family="Helvetica,sans-Serif" font-size="1.00" fill="#383838"> </text>
</g>
<!-- Network::::1538262271330303271 -->
<g id="node1" class="node">
<title>Network::::1538262271330303271</title>
<polygon fill="#e5e5e5" stroke="#dddddd" points="650,-339 573,-339 573,-281 650,-281 650,-339"/>
<text text-anchor="start" x="585.5" y="-319.2" font-family="Helvetica,sans-Serif" font-weight="bold" font-size="16.00" fill="#707070">Network</text>
<text text-anchor="start" x="585.5" y="-294.2" font-family="Helvetica,sans-Serif" font-size="16.00" fill="#383838">default</text>
</g>
<!-- Disk::::3479233308945268637 -->
<g id="node2" class="node">
<title>Disk::::3479233308945268637</title>
<polygon fill="#e5e5e5" stroke="#dddddd" points="492,-149 392,-149 392,-91 492,-91 492,-149"/>
<text text-anchor="start" x="404" y="-129.2" font-family="Helvetica,sans-Serif" font-weight="bold" font-size="16.00" fill="#707070">Disk</text>
<text text-anchor="start" x="404" y="-104.2" font-family="Helvetica,sans-Serif" font-size="16.00" fill="#383838">web&#45;server</text>
</g>
<!-- Policy::::policy -->
<g id="node3" class="node">
<title>Policy::::policy</title>
<polygon fill="#e5e5e5" stroke="#dddddd" points="202.5,-965 132.5,-965 132.5,-907 202.5,-907 202.5,-965"/>
<text text-anchor="start" x="144.5" y="-945.2" font-family="Helvetica,sans-Serif" font-weight="bold" font-size="16.00" fill="#707070">Policy</text>
<text text-anchor="start" x="144.5" y="-920.2" font-family="Helvetica,sans-Serif" font-size="16.00" fill="#383838">policy</text>
</g>
<!-- Binding::::roles/compute.admin -->
<g id="node4" class="node">
<title>Binding::::roles/compute.admin</title>
<polygon fill="#e5e5e5" stroke="#dddddd" points="251,-889 84,-889 84,-831 251,-831 251,-889"/>
<text text-anchor="start" x="96.5" y="-869.2" font-family="Helvetica,sans-Serif" font-weight="bold" font-size="16.00" fill="#707070">Binding</text>
<text text-anchor="start" x="96.5" y="-844.2" font-family="Helvetica,sans-Serif" font-size="16.00" fill="#383838">roles/compute.admin</text>
</g>
<!-- Binding::::roles/compute.serviceAgent -->
<g id="node5" class="node">
<title>Binding::::roles/compute.serviceAgent</title>
<polygon fill="#e5e5e5" stroke="#dddddd" points="277.5,-813 57.5,-813 57.5,-755 277.5,-755 277.5,-813"/>
<text text-anchor="start" x="69.5" y="-793.2" font-family="Helvetica,sans-Serif" font-weight="bold" font-size="16.00" fill="#707070">Binding</text>
<text text-anchor="start" x="69.5" y="-768.2" font-family="Helvetica,sans-Serif" font-size="16.00" fill="#383838">roles/compute.serviceAgent</text>
</g>
<!-- Binding::::roles/dns.admin -->
<g id="node6" class="node">
<title>Binding::::roles/dns.admin</title>
<polygon fill="#e5e5e5" stroke="#dddddd" points="236,-737 99,-737 99,-679 236,-679 236,-737"/>
<text text-anchor="start" x="111.5" y="-717.2" font-family="Helvetica,sans-Serif" font-weight="bold" font-size="16.00" fill="#707070">Binding</text>
<text text-anchor="start" x="111.5" y="-692.2" font-family="Helvetica,sans-Serif" font-size="16.00" fill="#383838">roles/dns.admin</text>
</g>
<!-- Binding::::roles/editor -->
<g id="node7" class="node">
<title>Binding::::roles/editor</title>
<polygon fill="#e5e5e5" stroke="#dddddd" points="225,-661 110,-661 110,-603 225,-603 225,-661"/>
<text text-anchor="start" x="122.5" y="-641.2" font-family="Helvetica,sans-Serif" font-weight="bold" font-size="16.00" fill="#707070">Binding</text>
<text text-anchor="start" x="122.5" y="-616.2" font-family="Helvetica,sans-Serif" font-size="16.00" fill="#383838">roles/editor</text>
</g>
<!-- Binding::::roles/iam.serviceAccountAdmin -->
<g id="node8" class="node">
<title>Binding::::roles/iam.serviceAccountAdmin</title>
<polygon fill="#e5e5e5" stroke="#dddddd" points="288.5,-585 46.5,-585 46.5,-527 288.5,-527 288.5,-585"/>
<text text-anchor="start" x="58.5" y="-565.2" font-family="Helvetica,sans-Serif" font-weight="bold" font-size="16.00" fill="#707070">Binding</text>
<text text-anchor="start" x="58.5" y="-540.2" font-family="Helvetica,sans-Serif" font-size="16.00" fill="#383838">roles/iam.serviceAccountAdmin</text>
</g>
<!-- Binding::::roles/owner -->
<g id="node9" class="node">
<title>Binding::::roles/owner</title>
<polygon fill="#e5e5e5" stroke="#dddddd" points="221,-509 114,-509 114,-451 221,-451 221,-509"/>
<text text-anchor="start" x="126.5" y="-489.2" font-family="Helvetica,sans-Serif" font-weight="bold" font-size="16.00" fill="#707070">Binding</text>
<text text-anchor="start" x="126.5" y="-464.2" font-family="Helvetica,sans-Serif" font-size="16.00" fill="#383838">roles/owner</text>
</g>
<!-- Binding::::roles/resourcemanager.projectIamAdmin -->
<g id="node10" class="node">
<title>Binding::::roles/resourcemanager.projectIamAdmin</title>
<polygon fill="#e5e5e5" stroke="#dddddd" points="311,-433 24,-433 24,-375 311,-375 311,-433"/>
<text text-anchor="start" x="36.5" y="-413.2" font-family="Helvetica,sans-Serif" font-weight="bold" font-size="16.00" fill="#707070">Binding</text>
<text text-anchor="start" x="36.5" y="-388.2" font-family="Helvetica,sans-Serif" font-size="16.00" fill="#383838">roles/resourcemanager.projectIam...</text>
</g>
<!-- Binding::::roles/storage.admin -->
<g id="node11" class="node">
<title>Binding::::roles/storage.admin</title>
<polygon fill="#e5e5e5" stroke="#dddddd" points="251,-357 84,-357 84,-299 251,-299 251,-357"/>
<text text-anchor="start" x="96.5" y="-337.2" font-family="Helvetica,sans-Serif" font-weight="bold" font-size="16.00" fill="#707070">Binding</text>
<text text-anchor="start" x="96.5" y="-312.2" font-family="Helvetica,sans-Serif" font-size="16.00" fill="#383838">roles/storage.admin</text>
</g>
<!-- Binding::::roles/storage.objectAdmin -->
<g id="node12" class="node">
<title>Binding::::roles/storage.objectAdmin</title>
<polygon fill="#e5e5e5" stroke="#dddddd" points="273.5,-281 61.5,-281 61.5,-223 273.5,-223 273.5,-281"/>
<text text-anchor="start" x="73.5" y="-261.2" font-family="Helvetica,sans-Serif" font-weight="bold" font-size="16.00" fill="#707070">Binding</text>
<text text-anchor="start" x="73.5" y="-236.2" font-family="Helvetica,sans-Serif" font-size="16.00" fill="#383838">roles/storage.objectAdmin</text>
</g>
<!-- Binding::::roles/viewer -->
<g id="node13" class="node">
<title>Binding::::roles/viewer</title>
<polygon fill="#e5e5e5" stroke="#dddddd" points="225,-205 110,-205 110,-147 225,-147 225,-205"/>
<text text-anchor="start" x="122.5" y="-185.2" font-family="Helvetica,sans-Serif" font-weight="bold" font-size="16.00" fill="#707070">Binding</text>
<text text-anchor="start" x="122.5" y="-160.2" font-family="Helvetica,sans-Serif" font-size="16.00" fill="#383838">roles/viewer</text>
</g>
<!-- Firewall::::5285077270892330268 -->
<g id="node14" class="node">
<title>Firewall::::5285077270892330268</title>
<polygon fill="#e5e5e5" stroke="#dddddd" points="522,-529 362,-529 362,-471 522,-471 522,-529"/>
<text text-anchor="start" x="374" y="-509.2" font-family="Helvetica,sans-Serif" font-weight="bold" font-size="16.00" fill="#707070">Firewall</text>
<text text-anchor="start" x="374" y="-484.2" font-family="Helvetica,sans-Serif" font-size="16.00" fill="#383838">default&#45;allow&#45;icmp</text>
</g>
<!-- Firewall::::5285077270892330268&#45;&gt;Network::::1538262271330303271 -->
<g id="edge1" class="edge">
<title>Firewall::::5285077270892330268&#45;&gt;Network::::1538262271330303271</title>
<path fill="none" stroke="#707070" d="M522.15,-473.35C527.48,-469.98 532.5,-466.21 537,-462 569.92,-431.19 589.81,-382.53 600.45,-348.59"/>
<polygon fill="#707070" stroke="#707070" points="603.81,-349.59 603.34,-339.01 597.1,-347.57 603.81,-349.59"/>
</g>
<!-- Firewall::::171558043715583260 -->
<g id="node15" class="node">
<title>Firewall::::171558043715583260</title>
<polygon fill="#e5e5e5" stroke="#dddddd" points="537,-453 347,-453 347,-395 537,-395 537,-453"/>
<text text-anchor="start" x="359" y="-433.2" font-family="Helvetica,sans-Serif" font-weight="bold" font-size="16.00" fill="#707070">Firewall</text>
<text text-anchor="start" x="359" y="-408.2" font-family="Helvetica,sans-Serif" font-size="16.00" fill="#383838">default&#45;allow&#45;internal</text>
</g>
<!-- Firewall::::171558043715583260&#45;&gt;Network::::1538262271330303271 -->
<g id="edge2" class="edge">
<title>Firewall::::171558043715583260&#45;&gt;Network::::1538262271330303271</title>
<path fill="none" stroke="#707070" d="M522.23,-394.86C527.36,-392.1 532.33,-389.15 537,-386 552.9,-375.28 568.07,-360.65 580.45,-347.09"/>
<polygon fill="#707070" stroke="#707070" points="583.38,-349.06 587.4,-339.26 578.15,-344.41 583.38,-349.06"/>
</g>
<!-- Firewall::::5942359957562670364 -->
<g id="node16" class="node">
<title>Firewall::::5942359957562670364</title>
<polygon fill="#e5e5e5" stroke="#dddddd" points="518,-377 366,-377 366,-319 518,-319 518,-377"/>
<text text-anchor="start" x="378" y="-357.2" font-family="Helvetica,sans-Serif" font-weight="bold" font-size="16.00" fill="#707070">Firewall</text>
<text text-anchor="start" x="378" y="-332.2" font-family="Helvetica,sans-Serif" font-size="16.00" fill="#383838">default&#45;allow&#45;rdp</text>
</g>
<!-- Firewall::::5942359957562670364&#45;&gt;Network::::1538262271330303271 -->
<g id="edge3" class="edge">
<title>Firewall::::5942359957562670364&#45;&gt;Network::::1538262271330303271</title>
<path fill="none" stroke="#707070" d="M518.42,-330.89C533.51,-327.47 548.97,-323.96 562.8,-320.82"/>
<polygon fill="#707070" stroke="#707070" points="563.59,-324.23 572.56,-318.61 562.04,-317.41 563.59,-324.23"/>
</g>
<!-- Firewall::::3339011543076912412 -->
<g id="node17" class="node">
<title>Firewall::::3339011543076912412</title>
<polygon fill="#e5e5e5" stroke="#dddddd" points="518,-301 366,-301 366,-243 518,-243 518,-301"/>
<text text-anchor="start" x="378" y="-281.2" font-family="Helvetica,sans-Serif" font-weight="bold" font-size="16.00" fill="#707070">Firewall</text>
<text text-anchor="start" x="378" y="-256.2" font-family="Helvetica,sans-Serif" font-size="16.00" fill="#383838">default&#45;allow&#45;ssh</text>
</g>
<!-- Firewall::::3339011543076912412&#45;&gt;Network::::1538262271330303271 -->
<g id="edge4" class="edge">
<title>Firewall::::3339011543076912412&#45;&gt;Network::::1538262271330303271</title>
<path fill="none" stroke="#707070" d="M518.42,-289.11C533.51,-292.53 548.97,-296.04 562.8,-299.18"/>
<polygon fill="#707070" stroke="#707070" points="562.04,-302.59 572.56,-301.39 563.59,-295.77 562.04,-302.59"/>
</g>
<!-- SubNetwork::::2053712691071499553 -->
<g id="node18" class="node">
<title>SubNetwork::::2053712691071499553</title>
<polygon fill="#e5e5e5" stroke="#dddddd" points="492,-225 392,-225 392,-167 492,-167 492,-225"/>
<text text-anchor="start" x="404" y="-205.2" font-family="Helvetica,sans-Serif" font-weight="bold" font-size="16.00" fill="#707070">SubNetwork</text>
<text text-anchor="start" x="404" y="-180.2" font-family="Helvetica,sans-Serif" font-size="16.00" fill="#383838">default</text>
</g>
<!-- SubNetwork::::2053712691071499553&#45;&gt;Network::::1538262271330303271 -->
<g id="edge5" class="edge">
<title>SubNetwork::::2053712691071499553&#45;&gt;Network::::1538262271330303271</title>
<path fill="none" stroke="#707070" d="M492.29,-211.47C507.31,-217.33 523.43,-224.85 537,-234 552.9,-244.72 568.07,-259.35 580.45,-272.91"/>
<polygon fill="#707070" stroke="#707070" points="578.15,-275.59 587.4,-280.74 583.38,-270.94 578.15,-275.59"/>
</g>
<!-- VmInstance::::5747070856931295133 -->
<g id="node19" class="node">
<title>VmInstance::::5747070856931295133</title>
<polygon fill="#e5e5e5" stroke="#dddddd" points="217.5,-129 117.5,-129 117.5,-71 217.5,-71 217.5,-129"/>
<text text-anchor="start" x="129.5" y="-109.2" font-family="Helvetica,sans-Serif" font-weight="bold" font-size="16.00" fill="#707070">VmInstance</text>
<text text-anchor="start" x="129.5" y="-84.2" font-family="Helvetica,sans-Serif" font-size="16.00" fill="#383838">web&#45;server</text>
</g>
<!-- VmInstance::::5747070856931295133&#45;&gt;Network::::1538262271330303271 -->
<g id="edge6" class="edge">
<title>VmInstance::::5747070856931295133&#45;&gt;Network::::1538262271330303271</title>
<path fill="none" stroke="#707070" d="M217.57,-79.84C293.85,-52.06 441.99,-12.8 537,-82 596.57,-125.38 608.89,-217.94 610.83,-270.81"/>
<polygon fill="#707070" stroke="#707070" points="607.33,-270.93 611.09,-280.83 614.33,-270.74 607.33,-270.93"/>
</g>
<!-- VmInstance::::5747070856931295133&#45;&gt;Disk::::3479233308945268637 -->
<g id="edge8" class="edge">
<title>VmInstance::::5747070856931295133&#45;&gt;Disk::::3479233308945268637</title>
<path fill="none" stroke="#707070" d="M217.53,-103.6C263.6,-106.98 332.61,-112.04 381.74,-115.65"/>
<polygon fill="#707070" stroke="#707070" points="381.67,-119.16 391.9,-116.4 382.19,-112.17 381.67,-119.16"/>
</g>
<!-- VmInstance::::5747070856931295133&#45;&gt;SubNetwork::::2053712691071499553 -->
<g id="edge7" class="edge">
<title>VmInstance::::5747070856931295133&#45;&gt;SubNetwork::::2053712691071499553</title>
<path fill="none" stroke="#707070" d="M217.62,-109.95C245.54,-116.38 280.85,-125.82 311,-138 327.97,-144.85 330.48,-150.11 347,-158 358.28,-163.39 370.53,-168.71 382.36,-173.59"/>
<polygon fill="#707070" stroke="#707070" points="381.14,-176.87 391.72,-177.4 383.77,-170.39 381.14,-176.87"/>
</g>
</g>
</svg>
