<?xml version="1.0" encoding="UTF-8" standalone="no"?>
<!DOCTYPE svg PUBLIC "-//W3C//DTD SVG 1.1//EN"
 "http://www.w3.org/Graphics/SVG/1.1/DTD/svg11.dtd">
<!-- Generated by graphviz version 2.42.3 ()
 -->
<!-- Title: graphname Pages: 1 -->
<svg width="465pt" height="333pt"
 viewBox="0.00 0.00 465.00 333.00" xmlns="http://www.w3.org/2000/svg" xmlns:xlink="http://www.w3.org/1999/xlink">
<g id="graph0" class="graph" transform="scale(1 1) rotate(0) translate(4 329)">
<title>graphname</title>
<polygon fill="#fafafa" stroke="transparent" points="-4,4 -4,-329 461,-329 461,4 -4,4"/>
<g id="clust1" class="cluster">
<title>cluster_google</title>
<polygon fill="#f5f5f5" stroke="#f5f5f5" points="8,-8 8,-317 449,-317 449,-8 8,-8"/>
<text text-anchor="start" x="172.5" y="-23" font-family="Helvetica,sans-Serif" font-weight="bold" font-size="20.00" fill="#707070">Provider google</text>
</g>
<g id="clust2" class="cluster">
<title>cluster_google_</title>
<polygon fill="#eeeeee" stroke="#eeeeee" points="16,-54 16,-309 441,-309 441,-54 16,-54"/>
<text text-anchor="start" x="224.5" y="-58.2" font-family="Helvetica,sans-Serif" font-size="1.00" fill="#383838"> </text>
</g>
<!-- Network::::7258773012956681426 -->
<g id="node1" class="node">
<title>Network::::7258773012956681426</title>
<polygon fill="#e5e5e5" stroke="#dddddd" points="433,-215 356,-215 356,-157 433,-157 433,-215"/>
<text text-anchor="start" x="368.5" y="-195.2" font-family="Helvetica,sans-Serif" font-weight="bold" font-size="16.00" fill="#707070">Network</text>
<text text-anchor="start" x="368.5" y="-170.2" font-family="Helvetica,sans-Serif" font-size="16.00" fill="#383838">rhmig</text>
</g>
<!-- Disk::::2758807692422780115 -->
<g id="node2" class="node">
<title>Disk::::2758807692422780115</title>
<polygon fill="#e5e5e5" stroke="#dddddd" points="290,-149 190,-149 190,-91 290,-91 290,-149"/>
<text text-anchor="start" x="202" y="-129.2" font-family="Helvetica,sans-Serif" font-weight="bold" font-size="16.00" fill="#707070">Disk</text>
<text text-anchor="start" x="202" y="-104.2" font-family="Helvetica,sans-Serif" font-size="16.00" fill="#383838">extra&#45;disk</text>
</g>
<!-- Disk::::3042111320179184772 -->
<g id="node3" class="node">
<title>Disk::::3042111320179184772</title>
<polygon fill="#e5e5e5" stroke="#dddddd" points="282.5,-225 197.5,-225 197.5,-167 282.5,-167 282.5,-225"/>
<text text-anchor="start" x="210" y="-205.2" font-family="Helvetica,sans-Serif" font-weight="bold" font-size="16.00" fill="#707070">Disk</text>
<text text-anchor="start" x="210" y="-180.2" font-family="Helvetica,sans-Serif" font-size="16.00" fill="#383838">s1&#45;2&#45;uk1</text>
</g>
<!-- SubNetwork::::1527258530765706428 -->
<g id="node4" class="node">
<title>SubNetwork::::1527258530765706428</title>
<polygon fill="#e5e5e5" stroke="#dddddd" points="320,-301 160,-301 160,-243 320,-243 320,-301"/>
<text text-anchor="start" x="172" y="-281.2" font-family="Helvetica,sans-Serif" font-weight="bold" font-size="16.00" fill="#707070">SubNetwork</text>
<text text-anchor="start" x="172" y="-256.2" font-family="Helvetica,sans-Serif" font-size="16.00" fill="#383838">subnet&#45;10&#45;0&#45;0&#45;0&#45;16</text>
</g>
<!-- SubNetwork::::1527258530765706428&#45;&gt;Network::::7258773012956681426 -->
<g id="edge1" class="edge">
<title>SubNetwork::::1527258530765706428&#45;&gt;Network::::7258773012956681426</title>
<path fill="none" stroke="#707070" d="M303.49,-242.88C309.12,-239.97 314.7,-236.99 320,-234 329.05,-228.89 338.5,-223.1 347.49,-217.35"/>
<polygon fill="#707070" stroke="#707070" points="349.45,-220.25 355.94,-211.88 345.64,-214.38 349.45,-220.25"/>
</g>
<!-- VmInstance::::8284183874917471364 -->
<g id="node5" class="node">
<title>VmInstance::::8284183874917471364</title>
<polygon fill="#e5e5e5" stroke="#dddddd" points="124,-187 24,-187 24,-129 124,-129 124,-187"/>
<text text-anchor="start" x="36" y="-167.2" font-family="Helvetica,sans-Serif" font-weight="bold" font-size="16.00" fill="#707070">VmInstance</text>
<text text-anchor="start" x="36" y="-142.2" font-family="Helvetica,sans-Serif" font-size="16.00" fill="#383838">s1&#45;2&#45;uk1</text>
</g>
<!-- VmInstance::::8284183874917471364&#45;&gt;Network::::7258773012956681426 -->
<g id="edge2" class="edge">
<title>VmInstance::::8284183874917471364&#45;&gt;Network::::7258773012956681426</title>
<path fill="none" stroke="#707070" d="M97.98,-128.73C113.42,-111.54 135.4,-91.39 160,-82 226.43,-56.63 256.85,-49.3 320,-82 346.52,-95.73 365.52,-123.92 377.54,-147.5"/>
<polygon fill="#707070" stroke="#707070" points="374.45,-149.13 381.97,-156.59 380.74,-146.07 374.45,-149.13"/>
</g>
<!-- VmInstance::::8284183874917471364&#45;&gt;Disk::::2758807692422780115 -->
<g id="edge5" class="edge">
<title>VmInstance::::8284183874917471364&#45;&gt;Disk::::2758807692422780115</title>
<path fill="none" stroke="#707070" d="M124.21,-146.6C141.72,-142.54 161.62,-137.93 179.88,-133.7"/>
<polygon fill="#707070" stroke="#707070" points="180.88,-137.06 189.83,-131.39 179.3,-130.24 180.88,-137.06"/>
</g>
<!-- VmInstance::::8284183874917471364&#45;&gt;Disk::::3042111320179184772 -->
<g id="edge4" class="edge">
<title>VmInstance::::8284183874917471364&#45;&gt;Disk::::3042111320179184772</title>
<path fill="none" stroke="#707070" d="M124.21,-169.4C144.14,-174.02 167.17,-179.36 187.35,-184.03"/>
<polygon fill="#707070" stroke="#707070" points="186.77,-187.49 197.31,-186.34 188.35,-180.67 186.77,-187.49"/>
</g>
<!-- VmInstance::::8284183874917471364&#45;&gt;SubNetwork::::1527258530765706428 -->
<g id="edge3" class="edge">
<title>VmInstance::::8284183874917471364&#45;&gt;SubNetwork::::1527258530765706428</title>
<path fill="none" stroke="#707070" d="M103.59,-187.27C119.34,-202.4 139.75,-220.47 160,-234 161.85,-235.24 163.75,-236.46 165.68,-237.66"/>
<polygon fill="#707070" stroke="#707070" points="163.95,-240.7 174.34,-242.79 167.52,-234.68 163.95,-240.7"/>
</g>
</g>
</svg>
