<?xml version="1.0" encoding="UTF-8" standalone="no"?>
<!DOCTYPE svg PUBLIC "-//W3C//DTD SVG 1.1//EN"
 "http://www.w3.org/Graphics/SVG/1.1/DTD/svg11.dtd">
<!-- Generated by graphviz version 2.42.3 ()
 -->
<!-- Title: graphname Pages: 1 -->
<svg width="465pt" height="333pt"
 viewBox="0.00 0.00 465.00 333.00" xmlns="http://www.w3.org/2000/svg" xmlns:xlink="http://www.w3.org/1999/xlink">
<g id="graph0" class="graph" transform="scale(1 1) rotate(0) translate(4 329)">
<title>graphname</title>
<polygon fill="#fafafa" stroke="transparent" points="-4,4 -4,-329 461,-329 461,4 -4,4"/>
<g id="clust1" class="cluster">
<title>cluster_google</title>
<polygon fill="#f5f5f5" stroke="#f5f5f5" points="8,-8 8,-317 449,-317 449,-8 8,-8"/>
<text text-anchor="start" x="172.5" y="-23" font-family="Helvetica,sans-Serif" font-weight="bold" font-size="20.00" fill="#707070">Provider google</text>
</g>
<g id="clust2" class="cluster">
<title>cluster_google_</title>
<polygon fill="#eeeeee" stroke="#eeeeee" points="16,-54 16,-309 441,-309 441,-54 16,-54"/>
<text text-anchor="start" x="224.5" y="-58.2" font-family="Helvetica,sans-Serif" font-size="1.00" fill="#383838"> </text>
</g>
<!-- Disk::::2758807692422780115 -->
<g id="node1" class="node">
<title>Disk::::2758807692422780115</title>
<polygon fill="#e5e5e5" stroke="#dddddd" points="290,-129 190,-129 190,-71 290,-71 290,-129"/>
<text text-anchor="start" x="202" y="-109.2" font-family="Helvetica,sans-Serif" font-weight="bold" font-size="16.00" fill="#707070">Disk</text>
<text text-anchor="start" x="202" y="-84.2" font-family="Helvetica,sans-Serif" font-size="16.00" fill="#383838">extra&#45;disk</text>
</g>
<!-- Disk::::3042111320179184772 -->
<g id="node2" class="node">
<title>Disk::::3042111320179184772</title>
<polygon fill="#e5e5e5" stroke="#dddddd" points="282.5,-205 197.5,-205 197.5,-147 282.5,-147 282.5,-205"/>
<text text-anchor="start" x="210" y="-185.2" font-family="Helvetica,sans-Serif" font-weight="bold" font-size="16.00" fill="#707070">Disk</text>
<text text-anchor="start" x="210" y="-160.2" font-family="Helvetica,sans-Serif" font-size="16.00" fill="#383838">s1&#45;2&#45;uk1</text>
</g>
<!-- Network::::7258773012956681426 -->
<g id="node3" class="node">
<title>Network::::7258773012956681426</title>
<polygon fill="#e5e5e5" stroke="#dddddd" points="433,-277 356,-277 356,-219 433,-219 433,-277"/>
<text text-anchor="start" x="368.5" y="-257.2" font-family="Helvetica,sans-Serif" font-weight="bold" font-size="16.00" fill="#707070">Network</text>
<text text-anchor="start" x="368.5" y="-232.2" font-family="Helvetica,sans-Serif" font-size="16.00" fill="#383838">rhmig</text>
</g>
<!-- SubNetwork::::1527258530765706428 -->
<g id="node4" class="node">
<title>SubNetwork::::1527258530765706428</title>
<polygon fill="#e5e5e5" stroke="#dddddd" points="320,-301 160,-301 160,-243 320,-243 320,-301"/>
<text text-anchor="start" x="172" y="-281.2" font-family="Helvetica,sans-Serif" font-weight="bold" font-size="16.00" fill="#707070">SubNetwork</text>
<text text-anchor="start" x="172" y="-256.2" font-family="Helvetica,sans-Serif" font-size="16.00" fill="#383838">subnet&#45;10&#45;0&#45;0&#45;0&#45;16</text>
</g>
<!-- SubNetwork::::1527258530765706428&#45;&gt;Network::::7258773012956681426 -->
<g id="edge1" class="edge">
<title>SubNetwork::::1527258530765706428&#45;&gt;Network::::7258773012956681426</title>
<path fill="none" stroke="#707070" d="M320.38,-259.51C329.03,-258.15 337.62,-256.79 345.72,-255.52"/>
<polygon fill="#707070" stroke="#707070" points="346.34,-258.96 355.68,-253.95 345.25,-252.05 346.34,-258.96"/>
</g>
<!-- VmInstance::::8284183874917471364 -->
<g id="node5" class="node">
<title>VmInstance::::8284183874917471364</title>
<polygon fill="#e5e5e5" stroke="#dddddd" points="124,-229 24,-229 24,-171 124,-171 124,-229"/>
<text text-anchor="start" x="36" y="-209.2" font-family="Helvetica,sans-Serif" font-weight="bold" font-size="16.00" fill="#707070">VmInstance</text>
<text text-anchor="start" x="36" y="-184.2" font-family="Helvetica,sans-Serif" font-size="16.00" fill="#383838">s1&#45;2&#45;uk1</text>
</g>
<!-- VmInstance::::8284183874917471364&#45;&gt;Disk::::2758807692422780115 -->
<g id="edge5" class="edge">
<title>VmInstance::::8284183874917471364&#45;&gt;Disk::::2758807692422780115</title>
<path fill="none" stroke="#707070" d="M112.07,-170.7C126.62,-159.82 143.7,-147.75 160,-138 166.61,-134.04 173.7,-130.17 180.81,-126.49"/>
<polygon fill="#707070" stroke="#707070" points="182.45,-129.58 189.8,-121.95 179.3,-123.33 182.45,-129.58"/>
</g>
<!-- VmInstance::::8284183874917471364&#45;&gt;Disk::::3042111320179184772 -->
<g id="edge4" class="edge">
<title>VmInstance::::8284183874917471364&#45;&gt;Disk::::3042111320179184772</title>
<path fill="none" stroke="#707070" d="M124.21,-192.8C144.14,-189.88 167.17,-186.51 187.35,-183.56"/>
<polygon fill="#707070" stroke="#707070" points="187.92,-187.01 197.31,-182.1 186.9,-180.09 187.92,-187.01"/>
</g>
<!-- VmInstance::::8284183874917471364&#45;&gt;Network::::7258773012956681426 -->
<g id="edge2" class="edge">
<title>VmInstance::::8284183874917471364&#45;&gt;Network::::7258773012956681426</title>
<path fill="none" stroke="#707070" d="M124.39,-208.47C136.05,-210.38 148.45,-212.33 160,-214 230.92,-224.27 249.21,-222.85 320,-234 328.39,-235.32 337.29,-236.88 345.9,-238.47"/>
<polygon fill="#707070" stroke="#707070" points="345.34,-241.93 355.81,-240.34 346.63,-235.05 345.34,-241.93"/>
</g>
<!-- VmInstance::::8284183874917471364&#45;&gt;SubNetwork::::1527258530765706428 -->
<g id="edge3" class="edge">
<title>VmInstance::::8284183874917471364&#45;&gt;SubNetwork::::1527258530765706428</title>
<path fill="none" stroke="#707070" d="M124.21,-221.6C136.62,-227.05 150.24,-233.03 163.63,-238.91"/>
<polygon fill="#707070" stroke="#707070" points="162.27,-242.14 172.84,-242.95 165.09,-235.73 162.27,-242.14"/>
</g>
</g>
</svg>
