<?xml version="1.0" encoding="UTF-8" standalone="no"?>
<!DOCTYPE svg PUBLIC "-//W3C//DTD SVG 1.1//EN"
 "http://www.w3.org/Graphics/SVG/1.1/DTD/svg11.dtd">
<!-- Generated by graphviz version 2.42.3 ()
 -->
<!-- Title: graphname Pages: 1 -->
<svg width="382pt" height="465pt"
 viewBox="0.00 0.00 382.00 465.00" xmlns="http://www.w3.org/2000/svg" xmlns:xlink="http://www.w3.org/1999/xlink">
<g id="graph0" class="graph" transform="scale(1 1) rotate(0) translate(4 461)">
<title>graphname</title>
<polygon fill="#fafafa" stroke="transparent" points="-4,4 -4,-461 378,-461 378,4 -4,4"/>
<g id="clust1" class="cluster">
<title>cluster_google</title>
<polygon fill="#f5f5f5" stroke="#f5f5f5" points="8,-8 8,-449 366,-449 366,-8 8,-8"/>
<text text-anchor="start" x="131" y="-23" font-family="Helvetica,sans-Serif" font-weight="bold" font-size="20.00" fill="#707070">Provider google</text>
</g>
<g id="clust2" class="cluster">
<title>cluster_google_</title>
<polygon fill="#eeeeee" stroke="#eeeeee" points="16,-54 16,-441 358,-441 358,-54 16,-54"/>
<text text-anchor="start" x="183" y="-58.2" font-family="Helvetica,sans-Serif" font-size="1.00" fill="#383838"> </text>
</g>
<!-- Disk::::3479233308945268637 -->
<g id="node1" class="node">
<title>Disk::::3479233308945268637</title>
<polygon fill="#e5e5e5" stroke="#dddddd" points="350,-129 250,-129 250,-71 350,-71 350,-129"/>
<text text-anchor="start" x="262" y="-109.2" font-family="Helvetica,sans-Serif" font-weight="bold" font-size="16.00" fill="#707070">Disk</text>
<text text-anchor="start" x="262" y="-84.2" font-family="Helvetica,sans-Serif" font-size="16.00" fill="#383838">web&#45;server</text>
</g>
<!-- Firewall::::5285077270892330268 -->
<g id="node2" class="node">
<title>Firewall::::5285077270892330268</title>
<polygon fill="#e5e5e5" stroke="#dddddd" points="199,-433 39,-433 39,-375 199,-375 199,-433"/>
<text text-anchor="start" x="51" y="-413.2" font-family="Helvetica,sans-Serif" font-weight="bold" font-size="16.00" fill="#707070">Firewall</text>
<text text-anchor="start" x="51" y="-388.2" font-family="Helvetica,sans-Serif" font-size="16.00" fill="#383838">default&#45;allow&#45;icmp</text>
</g>
<!-- Firewall::::171558043715583260 -->
<g id="node3" class="node">
<title>Firewall::::171558043715583260</title>
<polygon fill="#e5e5e5" stroke="#dddddd" points="214,-357 24,-357 24,-299 214,-299 214,-357"/>
<text text-anchor="start" x="36" y="-337.2" font-family="Helvetica,sans-Serif" font-weight="bold" font-size="16.00" fill="#707070">Firewall</text>
<text text-anchor="start" x="36" y="-312.2" font-family="Helvetica,sans-Serif" font-size="16.00" fill="#383838">default&#45;allow&#45;internal</text>
</g>
<!-- Firewall::::5942359957562670364 -->
<g id="node4" class="node">
<title>Firewall::::5942359957562670364</title>
<polygon fill="#e5e5e5" stroke="#dddddd" points="195,-281 43,-281 43,-223 195,-223 195,-281"/>
<text text-anchor="start" x="55" y="-261.2" font-family="Helvetica,sans-Serif" font-weight="bold" font-size="16.00" fill="#707070">Firewall</text>
<text text-anchor="start" x="55" y="-236.2" font-family="Helvetica,sans-Serif" font-size="16.00" fill="#383838">default&#45;allow&#45;rdp</text>
</g>
<!-- Firewall::::3339011543076912412 -->
<g id="node5" class="node">
<title>Firewall::::3339011543076912412</title>
<polygon fill="#e5e5e5" stroke="#dddddd" points="195,-205 43,-205 43,-147 195,-147 195,-205"/>
<text text-anchor="start" x="55" y="-185.2" font-family="Helvetica,sans-Serif" font-weight="bold" font-size="16.00" fill="#707070">Firewall</text>
<text text-anchor="start" x="55" y="-160.2" font-family="Helvetica,sans-Serif" font-size="16.00" fill="#383838">default&#45;allow&#45;ssh</text>
</g>
<!-- VmInstance::::5747070856931295133 -->
<g id="node6" class="node">
<title>VmInstance::::5747070856931295133</title>
<polygon fill="#e5e5e5" stroke="#dddddd" points="169,-129 69,-129 69,-71 169,-71 169,-129"/>
<text text-anchor="start" x="81" y="-109.2" font-family="Helvetica,sans-Serif" font-weight="bold" font-size="16.00" fill="#707070">VmInstance</text>
<text text-anchor="start" x="81" y="-84.2" font-family="Helvetica,sans-Serif" font-size="16.00" fill="#383838">web&#45;server</text>
</g>
<!-- VmInstance::::5747070856931295133&#45;&gt;Disk::::3479233308945268637 -->
<g id="edge1" class="edge">
<title>VmInstance::::5747070856931295133&#45;&gt;Disk::::3479233308945268637</title>
<path fill="none" stroke="#707070" d="M169.39,-100C191.1,-100 216.79,-100 239.55,-100"/>
<polygon fill="#707070" stroke="#707070" points="239.77,-103.5 249.77,-100 239.77,-96.5 239.77,-103.5"/>
</g>
</g>
</svg>
