<?xml version="1.0" encoding="UTF-8" standalone="no"?>
<!DOCTYPE svg PUBLIC "-//W3C//DTD SVG 1.1//EN"
 "http://www.w3.org/Graphics/SVG/1.1/DTD/svg11.dtd">
<!-- Generated by graphviz version 2.42.3 ()
 -->
<!-- Title: graphname Pages: 1 -->
<svg width="456pt" height="1301pt"
 viewBox="0.00 0.00 456.00 1301.00" xmlns="http://www.w3.org/2000/svg" xmlns:xlink="http://www.w3.org/1999/xlink">
<g id="graph0" class="graph" transform="scale(1 1) rotate(0) translate(4 1297)">
<title>graphname</title>
<polygon fill="#fafafa" stroke="transparent" points="-4,4 -4,-1297 452,-1297 452,4 -4,4"/>
<g id="clust1" class="cluster">
<title>cluster_google</title>
<polygon fill="#f5f5f5" stroke="#f5f5f5" points="8,-8 8,-1285 440,-1285 440,-8 8,-8"/>
<text text-anchor="start" x="168" y="-23" font-family="Helvetica,sans-Serif" font-weight="bold" font-size="20.00" fill="#707070">Provider google</text>
</g>
<g id="clust2" class="cluster">
<title>cluster_google_</title>
<polygon fill="#eeeeee" stroke="#eeeeee" points="16,-54 16,-1277 432,-1277 432,-54 16,-54"/>
<text text-anchor="start" x="220" y="-58.2" font-family="Helvetica,sans-Serif" font-size="1.00" fill="#383838"> </text>
</g>
<!-- Network::::1538262271330303271 -->
<g id="node1" class="node">
<title>Network::::1538262271330303271</title>
<polygon fill="#e5e5e5" stroke="#dddddd" points="424,-129 347,-129 347,-71 424,-71 424,-129"/>
<text text-anchor="start" x="359.5" y="-109.2" font-family="Helvetica,sans-Serif" font-weight="bold" font-size="16.00" fill="#707070">Network</text>
<text text-anchor="start" x="359.5" y="-84.2" font-family="Helvetica,sans-Serif" font-size="16.00" fill="#383838">default</text>
</g>
<!-- Binding::::roles/compute.admin -->
<g id="node2" class="node">
<title>Binding::::roles/compute.admin</title>
<polygon fill="#e5e5e5" stroke="#dddddd" points="251,-1269 84,-1269 84,-1211 251,-1211 251,-1269"/>
<text text-anchor="start" x="96.5" y="-1249.2" font-family="Helvetica,sans-Serif" font-weight="bold" font-size="16.00" fill="#707070">Binding</text>
<text text-anchor="start" x="96.5" y="-1224.2" font-family="Helvetica,sans-Serif" font-size="16.00" fill="#383838">roles/compute.admin</text>
</g>
<!-- Binding::::roles/compute.serviceAgent -->
<g id="node3" class="node">
<title>Binding::::roles/compute.serviceAgent</title>
<polygon fill="#e5e5e5" stroke="#dddddd" points="277.5,-1193 57.5,-1193 57.5,-1135 277.5,-1135 277.5,-1193"/>
<text text-anchor="start" x="69.5" y="-1173.2" font-family="Helvetica,sans-Serif" font-weight="bold" font-size="16.00" fill="#707070">Binding</text>
<text text-anchor="start" x="69.5" y="-1148.2" font-family="Helvetica,sans-Serif" font-size="16.00" fill="#383838">roles/compute.serviceAgent</text>
</g>
<!-- Binding::::roles/containerregistry.ServiceAgent -->
<g id="node4" class="node">
<title>Binding::::roles/containerregistry.ServiceAgent</title>
<polygon fill="#e5e5e5" stroke="#dddddd" points="311,-1117 24,-1117 24,-1059 311,-1059 311,-1117"/>
<text text-anchor="start" x="36.5" y="-1097.2" font-family="Helvetica,sans-Serif" font-weight="bold" font-size="16.00" fill="#707070">Binding</text>
<text text-anchor="start" x="36.5" y="-1072.2" font-family="Helvetica,sans-Serif" font-size="16.00" fill="#383838">roles/containerregistry.ServiceA...</text>
</g>
<!-- Binding::::roles/dns.admin -->
<g id="node5" class="node">
<title>Binding::::roles/dns.admin</title>
<polygon fill="#e5e5e5" stroke="#dddddd" points="236,-1041 99,-1041 99,-983 236,-983 236,-1041"/>
<text text-anchor="start" x="111.5" y="-1021.2" font-family="Helvetica,sans-Serif" font-weight="bold" font-size="16.00" fill="#707070">Binding</text>
<text text-anchor="start" x="111.5" y="-996.2" font-family="Helvetica,sans-Serif" font-size="16.00" fill="#383838">roles/dns.admin</text>
</g>
<!-- Binding::::roles/editor -->
<g id="node6" class="node">
<title>Binding::::roles/editor</title>
<polygon fill="#e5e5e5" stroke="#dddddd" points="225,-965 110,-965 110,-907 225,-907 225,-965"/>
<text text-anchor="start" x="122.5" y="-945.2" font-family="Helvetica,sans-Serif" font-weight="bold" font-size="16.00" fill="#707070">Binding</text>
<text text-anchor="start" x="122.5" y="-920.2" font-family="Helvetica,sans-Serif" font-size="16.00" fill="#383838">roles/editor</text>
</g>
<!-- Binding::::roles/iam.serviceAccountAdmin -->
<g id="node7" class="node">
<title>Binding::::roles/iam.serviceAccountAdmin</title>
<polygon fill="#e5e5e5" stroke="#dddddd" points="288.5,-889 46.5,-889 46.5,-831 288.5,-831 288.5,-889"/>
<text text-anchor="start" x="58.5" y="-869.2" font-family="Helvetica,sans-Serif" font-weight="bold" font-size="16.00" fill="#707070">Binding</text>
<text text-anchor="start" x="58.5" y="-844.2" font-family="Helvetica,sans-Serif" font-size="16.00" fill="#383838">roles/iam.serviceAccountAdmin</text>
</g>
<!-- Binding::::roles/owner -->
<g id="node8" class="node">
<title>Binding::::roles/owner</title>
<polygon fill="#e5e5e5" stroke="#dddddd" points="221,-813 114,-813 114,-755 221,-755 221,-813"/>
<text text-anchor="start" x="126.5" y="-793.2" font-family="Helvetica,sans-Serif" font-weight="bold" font-size="16.00" fill="#707070">Binding</text>
<text text-anchor="start" x="126.5" y="-768.2" font-family="Helvetica,sans-Serif" font-size="16.00" fill="#383838">roles/owner</text>
</g>
<!-- Binding::::roles/pubsub.serviceAgent -->
<g id="node9" class="node">
<title>Binding::::roles/pubsub.serviceAgent</title>
<polygon fill="#e5e5e5" stroke="#dddddd" points="273.5,-737 61.5,-737 61.5,-679 273.5,-679 273.5,-737"/>
<text text-anchor="start" x="73.5" y="-717.2" font-family="Helvetica,sans-Serif" font-weight="bold" font-size="16.00" fill="#707070">Binding</text>
<text text-anchor="start" x="73.5" y="-692.2" font-family="Helvetica,sans-Serif" font-size="16.00" fill="#383838">roles/pubsub.serviceAgent</text>
</g>
<!-- Binding::::roles/resourcemanager.projectIamAdmin -->
<g id="node10" class="node">
<title>Binding::::roles/resourcemanager.projectIamAdmin</title>
<polygon fill="#e5e5e5" stroke="#dddddd" points="311,-661 24,-661 24,-603 311,-603 311,-661"/>
<text text-anchor="start" x="36.5" y="-641.2" font-family="Helvetica,sans-Serif" font-weight="bold" font-size="16.00" fill="#707070">Binding</text>
<text text-anchor="start" x="36.5" y="-616.2" font-family="Helvetica,sans-Serif" font-size="16.00" fill="#383838">roles/resourcemanager.projectIam...</text>
</g>
<!-- Binding::::roles/run.admin -->
<g id="node11" class="node">
<title>Binding::::roles/run.admin</title>
<polygon fill="#e5e5e5" stroke="#dddddd" points="236,-585 99,-585 99,-527 236,-527 236,-585"/>
<text text-anchor="start" x="111.5" y="-565.2" font-family="Helvetica,sans-Serif" font-weight="bold" font-size="16.00" fill="#707070">Binding</text>
<text text-anchor="start" x="111.5" y="-540.2" font-family="Helvetica,sans-Serif" font-size="16.00" fill="#383838">roles/run.admin</text>
</g>
<!-- Binding::::roles/run.serviceAgent -->
<g id="node12" class="node">
<title>Binding::::roles/run.serviceAgent</title>
<polygon fill="#e5e5e5" stroke="#dddddd" points="262.5,-509 72.5,-509 72.5,-451 262.5,-451 262.5,-509"/>
<text text-anchor="start" x="84.5" y="-489.2" font-family="Helvetica,sans-Serif" font-weight="bold" font-size="16.00" fill="#707070">Binding</text>
<text text-anchor="start" x="84.5" y="-464.2" font-family="Helvetica,sans-Serif" font-size="16.00" fill="#383838">roles/run.serviceAgent</text>
</g>
<!-- Binding::::roles/storage.admin -->
<g id="node13" class="node">
<title>Binding::::roles/storage.admin</title>
<polygon fill="#e5e5e5" stroke="#dddddd" points="251,-433 84,-433 84,-375 251,-375 251,-433"/>
<text text-anchor="start" x="96.5" y="-413.2" font-family="Helvetica,sans-Serif" font-weight="bold" font-size="16.00" fill="#707070">Binding</text>
<text text-anchor="start" x="96.5" y="-388.2" font-family="Helvetica,sans-Serif" font-size="16.00" fill="#383838">roles/storage.admin</text>
</g>
<!-- Binding::::roles/storage.objectAdmin -->
<g id="node14" class="node">
<title>Binding::::roles/storage.objectAdmin</title>
<polygon fill="#e5e5e5" stroke="#dddddd" points="273.5,-357 61.5,-357 61.5,-299 273.5,-299 273.5,-357"/>
<text text-anchor="start" x="73.5" y="-337.2" font-family="Helvetica,sans-Serif" font-weight="bold" font-size="16.00" fill="#707070">Binding</text>
<text text-anchor="start" x="73.5" y="-312.2" font-family="Helvetica,sans-Serif" font-size="16.00" fill="#383838">roles/storage.objectAdmin</text>
</g>
<!-- Binding::::roles/viewer -->
<g id="node15" class="node">
<title>Binding::::roles/viewer</title>
<polygon fill="#e5e5e5" stroke="#dddddd" points="225,-281 110,-281 110,-223 225,-223 225,-281"/>
<text text-anchor="start" x="122.5" y="-261.2" font-family="Helvetica,sans-Serif" font-weight="bold" font-size="16.00" fill="#707070">Binding</text>
<text text-anchor="start" x="122.5" y="-236.2" font-family="Helvetica,sans-Serif" font-size="16.00" fill="#383838">roles/viewer</text>
</g>
<!-- Policy::::policy -->
<g id="node16" class="node">
<title>Policy::::policy</title>
<polygon fill="#e5e5e5" stroke="#dddddd" points="202.5,-205 132.5,-205 132.5,-147 202.5,-147 202.5,-205"/>
<text text-anchor="start" x="144.5" y="-185.2" font-family="Helvetica,sans-Serif" font-weight="bold" font-size="16.00" fill="#707070">Policy</text>
<text text-anchor="start" x="144.5" y="-160.2" font-family="Helvetica,sans-Serif" font-size="16.00" fill="#383838">policy</text>
</g>
<!-- SubNetwork::::2053712691071499553 -->
<g id="node17" class="node">
<title>SubNetwork::::2053712691071499553</title>
<polygon fill="#e5e5e5" stroke="#dddddd" points="217.5,-129 117.5,-129 117.5,-71 217.5,-71 217.5,-129"/>
<text text-anchor="start" x="129.5" y="-109.2" font-family="Helvetica,sans-Serif" font-weight="bold" font-size="16.00" fill="#707070">SubNetwork</text>
<text text-anchor="start" x="129.5" y="-84.2" font-family="Helvetica,sans-Serif" font-size="16.00" fill="#383838">default</text>
</g>
<!-- SubNetwork::::2053712691071499553&#45;&gt;Network::::1538262271330303271 -->
<g id="edge1" class="edge">
<title>SubNetwork::::2053712691071499553&#45;&gt;Network::::1538262271330303271</title>
<path fill="none" stroke="#707070" d="M217.51,-100C253.2,-100 301.28,-100 336.68,-100"/>
<polygon fill="#707070" stroke="#707070" points="336.77,-103.5 346.77,-100 336.77,-96.5 336.77,-103.5"/>
</g>
</g>
</svg>
