<?xml version="1.0" encoding="UTF-8" standalone="no"?>
<!DOCTYPE svg PUBLIC "-//W3C//DTD SVG 1.1//EN"
 "http://www.w3.org/Graphics/SVG/1.1/DTD/svg11.dtd">
<!-- Generated by graphviz version 2.42.3 ()
 -->
<!-- Title: graphname Pages: 1 -->
<svg width="456pt" height="1301pt"
 viewBox="0.00 0.00 456.00 1301.00" xmlns="http://www.w3.org/2000/svg" xmlns:xlink="http://www.w3.org/1999/xlink">
<g id="graph0" class="graph" transform="scale(1 1) rotate(0) translate(4 1297)">
<title>graphname</title>
<polygon fill="#fafafa" stroke="transparent" points="-4,4 -4,-1297 452,-1297 452,4 -4,4"/>
<g id="clust1" class="cluster">
<title>cluster_google</title>
<polygon fill="#f5f5f5" stroke="#f5f5f5" points="8,-8 8,-1285 440,-1285 440,-8 8,-8"/>
<text text-anchor="start" x="168" y="-23" font-family="Helvetica,sans-Serif" font-weight="bold" font-size="20.00" fill="#707070">Provider google</text>
</g>
<g id="clust2" class="cluster">
<title>cluster_google_</title>
<polygon fill="#eeeeee" stroke="#eeeeee" points="16,-54 16,-1277 432,-1277 432,-54 16,-54"/>
<text text-anchor="start" x="220" y="-58.2" font-family="Helvetica,sans-Serif" font-size="1.00" fill="#383838"> </text>
</g>
<!-- Network::::1538262271330303271 -->
<g id="node1" class="node">
<title>Network::::1538262271330303271</title>
<polygon fill="#e5e5e5" stroke="#dddddd" points="424,-281 347,-281 347,-223 424,-223 424,-281"/>
<text text-anchor="start" x="359.5" y="-261.2" font-family="Helvetica,sans-Serif" font-weight="bold" font-size="16.00" fill="#707070">Network</text>
<text text-anchor="start" x="359.5" y="-236.2" font-family="Helvetica,sans-Serif" font-size="16.00" fill="#383838">default</text>
</g>
<!-- Binding::::roles/compute.admin -->
<g id="node2" class="node">
<title>Binding::::roles/compute.admin</title>
<polygon fill="#e5e5e5" stroke="#dddddd" points="251,-1269 84,-1269 84,-1211 251,-1211 251,-1269"/>
<text text-anchor="start" x="96.5" y="-1249.2" font-family="Helvetica,sans-Serif" font-weight="bold" font-size="16.00" fill="#707070">Binding</text>
<text text-anchor="start" x="96.5" y="-1224.2" font-family="Helvetica,sans-Serif" font-size="16.00" fill="#383838">roles/compute.admin</text>
</g>
<!-- Binding::::roles/compute.serviceAgent -->
<g id="node3" class="node">
<title>Binding::::roles/compute.serviceAgent</title>
<polygon fill="#e5e5e5" stroke="#dddddd" points="277.5,-1193 57.5,-1193 57.5,-1135 277.5,-1135 277.5,-1193"/>
<text text-anchor="start" x="69.5" y="-1173.2" font-family="Helvetica,sans-Serif" font-weight="bold" font-size="16.00" fill="#707070">Binding</text>
<text text-anchor="start" x="69.5" y="-1148.2" font-family="Helvetica,sans-Serif" font-size="16.00" fill="#383838">roles/compute.serviceAgent</text>
</g>
<!-- Binding::::roles/dns.admin -->
<g id="node4" class="node">
<title>Binding::::roles/dns.admin</title>
<polygon fill="#e5e5e5" stroke="#dddddd" points="236,-1117 99,-1117 99,-1059 236,-1059 236,-1117"/>
<text text-anchor="start" x="111.5" y="-1097.2" font-family="Helvetica,sans-Serif" font-weight="bold" font-size="16.00" fill="#707070">Binding</text>
<text text-anchor="start" x="111.5" y="-1072.2" font-family="Helvetica,sans-Serif" font-size="16.00" fill="#383838">roles/dns.admin</text>
</g>
<!-- Binding::::roles/editor -->
<g id="node5" class="node">
<title>Binding::::roles/editor</title>
<polygon fill="#e5e5e5" stroke="#dddddd" points="225,-1041 110,-1041 110,-983 225,-983 225,-1041"/>
<text text-anchor="start" x="122.5" y="-1021.2" font-family="Helvetica,sans-Serif" font-weight="bold" font-size="16.00" fill="#707070">Binding</text>
<text text-anchor="start" x="122.5" y="-996.2" font-family="Helvetica,sans-Serif" font-size="16.00" fill="#383838">roles/editor</text>
</g>
<!-- Binding::::roles/iam.serviceAccountAdmin -->
<g id="node6" class="node">
<title>Binding::::roles/iam.serviceAccountAdmin</title>
<polygon fill="#e5e5e5" stroke="#dddddd" points="288.5,-965 46.5,-965 46.5,-907 288.5,-907 288.5,-965"/>
<text text-anchor="start" x="58.5" y="-945.2" font-family="Helvetica,sans-Serif" font-weight="bold" font-size="16.00" fill="#707070">Binding</text>
<text text-anchor="start" x="58.5" y="-920.2" font-family="Helvetica,sans-Serif" font-size="16.00" fill="#383838">roles/iam.serviceAccountAdmin</text>
</g>
<!-- Binding::::roles/owner -->
<g id="node7" class="node">
<title>Binding::::roles/owner</title>
<polygon fill="#e5e5e5" stroke="#dddddd" points="221,-889 114,-889 114,-831 221,-831 221,-889"/>
<text text-anchor="start" x="126.5" y="-869.2" font-family="Helvetica,sans-Serif" font-weight="bold" font-size="16.00" fill="#707070">Binding</text>
<text text-anchor="start" x="126.5" y="-844.2" font-family="Helvetica,sans-Serif" font-size="16.00" fill="#383838">roles/owner</text>
</g>
<!-- Binding::::roles/resourcemanager.projectIamAdmin -->
<g id="node8" class="node">
<title>Binding::::roles/resourcemanager.projectIamAdmin</title>
<polygon fill="#e5e5e5" stroke="#dddddd" points="311,-813 24,-813 24,-755 311,-755 311,-813"/>
<text text-anchor="start" x="36.5" y="-793.2" font-family="Helvetica,sans-Serif" font-weight="bold" font-size="16.00" fill="#707070">Binding</text>
<text text-anchor="start" x="36.5" y="-768.2" font-family="Helvetica,sans-Serif" font-size="16.00" fill="#383838">roles/resourcemanager.projectIam...</text>
</g>
<!-- Binding::::roles/storage.admin -->
<g id="node9" class="node">
<title>Binding::::roles/storage.admin</title>
<polygon fill="#e5e5e5" stroke="#dddddd" points="251,-737 84,-737 84,-679 251,-679 251,-737"/>
<text text-anchor="start" x="96.5" y="-717.2" font-family="Helvetica,sans-Serif" font-weight="bold" font-size="16.00" fill="#707070">Binding</text>
<text text-anchor="start" x="96.5" y="-692.2" font-family="Helvetica,sans-Serif" font-size="16.00" fill="#383838">roles/storage.admin</text>
</g>
<!-- Binding::::roles/storage.objectAdmin -->
<g id="node10" class="node">
<title>Binding::::roles/storage.objectAdmin</title>
<polygon fill="#e5e5e5" stroke="#dddddd" points="273.5,-661 61.5,-661 61.5,-603 273.5,-603 273.5,-661"/>
<text text-anchor="start" x="73.5" y="-641.2" font-family="Helvetica,sans-Serif" font-weight="bold" font-size="16.00" fill="#707070">Binding</text>
<text text-anchor="start" x="73.5" y="-616.2" font-family="Helvetica,sans-Serif" font-size="16.00" fill="#383838">roles/storage.objectAdmin</text>
</g>
<!-- Binding::::roles/viewer -->
<g id="node11" class="node">
<title>Binding::::roles/viewer</title>
<polygon fill="#e5e5e5" stroke="#dddddd" points="225,-585 110,-585 110,-527 225,-527 225,-585"/>
<text text-anchor="start" x="122.5" y="-565.2" font-family="Helvetica,sans-Serif" font-weight="bold" font-size="16.00" fill="#707070">Binding</text>
<text text-anchor="start" x="122.5" y="-540.2" font-family="Helvetica,sans-Serif" font-size="16.00" fill="#383838">roles/viewer</text>
</g>
<!-- Policy::::policy -->
<g id="node12" class="node">
<title>Policy::::policy</title>
<polygon fill="#e5e5e5" stroke="#dddddd" points="202.5,-509 132.5,-509 132.5,-451 202.5,-451 202.5,-509"/>
<text text-anchor="start" x="144.5" y="-489.2" font-family="Helvetica,sans-Serif" font-weight="bold" font-size="16.00" fill="#707070">Policy</text>
<text text-anchor="start" x="144.5" y="-464.2" font-family="Helvetica,sans-Serif" font-size="16.00" fill="#383838">policy</text>
</g>
<!-- Firewall::::5285077270892330268 -->
<g id="node13" class="node">
<title>Firewall::::5285077270892330268</title>
<polygon fill="#e5e5e5" stroke="#dddddd" points="247.5,-433 87.5,-433 87.5,-375 247.5,-375 247.5,-433"/>
<text text-anchor="start" x="99.5" y="-413.2" font-family="Helvetica,sans-Serif" font-weight="bold" font-size="16.00" fill="#707070">Firewall</text>
<text text-anchor="start" x="99.5" y="-388.2" font-family="Helvetica,sans-Serif" font-size="16.00" fill="#383838">default&#45;allow&#45;icmp</text>
</g>
<!-- Firewall::::5285077270892330268&#45;&gt;Network::::1538262271330303271 -->
<g id="edge1" class="edge">
<title>Firewall::::5285077270892330268&#45;&gt;Network::::1538262271330303271</title>
<path fill="none" stroke="#707070" d="M247.79,-393.71C269.74,-388.09 292.58,-379.41 311,-366 337.16,-346.95 356.42,-315.49 368.64,-290.45"/>
<polygon fill="#707070" stroke="#707070" points="371.9,-291.74 372.98,-281.2 365.57,-288.76 371.9,-291.74"/>
</g>
<!-- Firewall::::171558043715583260 -->
<g id="node14" class="node">
<title>Firewall::::171558043715583260</title>
<polygon fill="#e5e5e5" stroke="#dddddd" points="262.5,-357 72.5,-357 72.5,-299 262.5,-299 262.5,-357"/>
<text text-anchor="start" x="84.5" y="-337.2" font-family="Helvetica,sans-Serif" font-weight="bold" font-size="16.00" fill="#707070">Firewall</text>
<text text-anchor="start" x="84.5" y="-312.2" font-family="Helvetica,sans-Serif" font-size="16.00" fill="#383838">default&#45;allow&#45;internal</text>
</g>
<!-- Firewall::::171558043715583260&#45;&gt;Network::::1538262271330303271 -->
<g id="edge2" class="edge">
<title>Firewall::::171558043715583260&#45;&gt;Network::::1538262271330303271</title>
<path fill="none" stroke="#707070" d="M262.56,-306.02C278.91,-301.32 295.6,-295.95 311,-290 319.85,-286.58 329.03,-282.39 337.77,-278.07"/>
<polygon fill="#707070" stroke="#707070" points="339.37,-281.18 346.7,-273.53 336.2,-274.94 339.37,-281.18"/>
</g>
<!-- Firewall::::5942359957562670364 -->
<g id="node15" class="node">
<title>Firewall::::5942359957562670364</title>
<polygon fill="#e5e5e5" stroke="#dddddd" points="243.5,-281 91.5,-281 91.5,-223 243.5,-223 243.5,-281"/>
<text text-anchor="start" x="103.5" y="-261.2" font-family="Helvetica,sans-Serif" font-weight="bold" font-size="16.00" fill="#707070">Firewall</text>
<text text-anchor="start" x="103.5" y="-236.2" font-family="Helvetica,sans-Serif" font-size="16.00" fill="#383838">default&#45;allow&#45;rdp</text>
</g>
<!-- Firewall::::5942359957562670364&#45;&gt;Network::::1538262271330303271 -->
<g id="edge3" class="edge">
<title>Firewall::::5942359957562670364&#45;&gt;Network::::1538262271330303271</title>
<path fill="none" stroke="#707070" d="M243.74,-252C274.62,-252 309.44,-252 336.73,-252"/>
<polygon fill="#707070" stroke="#707070" points="336.79,-255.5 346.79,-252 336.79,-248.5 336.79,-255.5"/>
</g>
<!-- Firewall::::3339011543076912412 -->
<g id="node16" class="node">
<title>Firewall::::3339011543076912412</title>
<polygon fill="#e5e5e5" stroke="#dddddd" points="243.5,-205 91.5,-205 91.5,-147 243.5,-147 243.5,-205"/>
<text text-anchor="start" x="103.5" y="-185.2" font-family="Helvetica,sans-Serif" font-weight="bold" font-size="16.00" fill="#707070">Firewall</text>
<text text-anchor="start" x="103.5" y="-160.2" font-family="Helvetica,sans-Serif" font-size="16.00" fill="#383838">default&#45;allow&#45;ssh</text>
</g>
<!-- Firewall::::3339011543076912412&#45;&gt;Network::::1538262271330303271 -->
<g id="edge4" class="edge">
<title>Firewall::::3339011543076912412&#45;&gt;Network::::1538262271330303271</title>
<path fill="none" stroke="#707070" d="M243.8,-192.83C265.78,-198.61 289.63,-205.74 311,-214 319.85,-217.42 329.03,-221.61 337.77,-225.93"/>
<polygon fill="#707070" stroke="#707070" points="336.2,-229.06 346.7,-230.47 339.37,-222.82 336.2,-229.06"/>
</g>
<!-- SubNetwork::::2053712691071499553 -->
<g id="node17" class="node">
<title>SubNetwork::::2053712691071499553</title>
<polygon fill="#e5e5e5" stroke="#dddddd" points="217.5,-129 117.5,-129 117.5,-71 217.5,-71 217.5,-129"/>
<text text-anchor="start" x="129.5" y="-109.2" font-family="Helvetica,sans-Serif" font-weight="bold" font-size="16.00" fill="#707070">SubNetwork</text>
<text text-anchor="start" x="129.5" y="-84.2" font-family="Helvetica,sans-Serif" font-size="16.00" fill="#383838">default</text>
</g>
<!-- SubNetwork::::2053712691071499553&#45;&gt;Network::::1538262271330303271 -->
<g id="edge5" class="edge">
<title>SubNetwork::::2053712691071499553&#45;&gt;Network::::1538262271330303271</title>
<path fill="none" stroke="#707070" d="M217.52,-104.16C246.93,-108.7 283.78,-118.18 311,-138 337.16,-157.05 356.42,-188.51 368.64,-213.55"/>
<polygon fill="#707070" stroke="#707070" points="365.57,-215.24 372.98,-222.8 371.9,-212.26 365.57,-215.24"/>
</g>
</g>
</svg>
