<?xml version="1.0" encoding="UTF-8" standalone="no"?>
<!DOCTYPE svg PUBLIC "-//W3C//DTD SVG 1.1//EN"
 "http://www.w3.org/Graphics/SVG/1.1/DTD/svg11.dtd">
<!-- Generated by graphviz version 2.42.3 ()
 -->
<!-- Title: graphname Pages: 1 -->
<svg width="495pt" height="561pt"
 viewBox="0.00 0.00 495.00 561.00" xmlns="http://www.w3.org/2000/svg" xmlns:xlink="http://www.w3.org/1999/xlink">
<g id="graph0" class="graph" transform="scale(1 1) rotate(0) translate(4 557)">
<title>graphname</title>
<polygon fill="#fafafa" stroke="transparent" points="-4,4 -4,-557 491,-557 491,4 -4,4"/>
<g id="clust1" class="cluster">
<title>cluster_google</title>
<polygon fill="#f5f5f5" stroke="#f5f5f5" points="8,-8 8,-545 479,-545 479,-8 8,-8"/>
<text text-anchor="start" x="187.5" y="-23" font-family="Helvetica,sans-Serif" font-weight="bold" font-size="20.00" fill="#707070">Provider google</text>
</g>
<g id="clust2" class="cluster">
<title>cluster_google_</title>
<polygon fill="#eeeeee" stroke="#eeeeee" points="16,-54 16,-537 471,-537 471,-54 16,-54"/>
<text text-anchor="start" x="239.5" y="-58.2" font-family="Helvetica,sans-Serif" font-size="1.00" fill="#383838"> </text>
</g>
<!-- Network::::1538262271330303271 -->
<g id="node1" class="node">
<title>Network::::1538262271330303271</title>
<polygon fill="#e5e5e5" stroke="#dddddd" points="463,-339 386,-339 386,-281 463,-281 463,-339"/>
<text text-anchor="start" x="398.5" y="-319.2" font-family="Helvetica,sans-Serif" font-weight="bold" font-size="16.00" fill="#707070">Network</text>
<text text-anchor="start" x="398.5" y="-294.2" font-family="Helvetica,sans-Serif" font-size="16.00" fill="#383838">default</text>
</g>
<!-- Disk::::3479233308945268637 -->
<g id="node2" class="node">
<title>Disk::::3479233308945268637</title>
<polygon fill="#e5e5e5" stroke="#dddddd" points="305,-149 205,-149 205,-91 305,-91 305,-149"/>
<text text-anchor="start" x="217" y="-129.2" font-family="Helvetica,sans-Serif" font-weight="bold" font-size="16.00" fill="#707070">Disk</text>
<text text-anchor="start" x="217" y="-104.2" font-family="Helvetica,sans-Serif" font-size="16.00" fill="#383838">web&#45;server</text>
</g>
<!-- Firewall::::5285077270892330268 -->
<g id="node3" class="node">
<title>Firewall::::5285077270892330268</title>
<polygon fill="#e5e5e5" stroke="#dddddd" points="335,-529 175,-529 175,-471 335,-471 335,-529"/>
<text text-anchor="start" x="187" y="-509.2" font-family="Helvetica,sans-Serif" font-weight="bold" font-size="16.00" fill="#707070">Firewall</text>
<text text-anchor="start" x="187" y="-484.2" font-family="Helvetica,sans-Serif" font-size="16.00" fill="#383838">default&#45;allow&#45;icmp</text>
</g>
<!-- Firewall::::5285077270892330268&#45;&gt;Network::::1538262271330303271 -->
<g id="edge1" class="edge">
<title>Firewall::::5285077270892330268&#45;&gt;Network::::1538262271330303271</title>
<path fill="none" stroke="#707070" d="M335.15,-473.35C340.48,-469.98 345.5,-466.21 350,-462 382.92,-431.19 402.81,-382.53 413.45,-348.59"/>
<polygon fill="#707070" stroke="#707070" points="416.81,-349.59 416.34,-339.01 410.1,-347.57 416.81,-349.59"/>
</g>
<!-- Firewall::::171558043715583260 -->
<g id="node4" class="node">
<title>Firewall::::171558043715583260</title>
<polygon fill="#e5e5e5" stroke="#dddddd" points="350,-453 160,-453 160,-395 350,-395 350,-453"/>
<text text-anchor="start" x="172" y="-433.2" font-family="Helvetica,sans-Serif" font-weight="bold" font-size="16.00" fill="#707070">Firewall</text>
<text text-anchor="start" x="172" y="-408.2" font-family="Helvetica,sans-Serif" font-size="16.00" fill="#383838">default&#45;allow&#45;internal</text>
</g>
<!-- Firewall::::171558043715583260&#45;&gt;Network::::1538262271330303271 -->
<g id="edge2" class="edge">
<title>Firewall::::171558043715583260&#45;&gt;Network::::1538262271330303271</title>
<path fill="none" stroke="#707070" d="M335.23,-394.86C340.36,-392.1 345.33,-389.15 350,-386 365.9,-375.28 381.07,-360.65 393.45,-347.09"/>
<polygon fill="#707070" stroke="#707070" points="396.38,-349.06 400.4,-339.26 391.15,-344.41 396.38,-349.06"/>
</g>
<!-- Firewall::::5942359957562670364 -->
<g id="node5" class="node">
<title>Firewall::::5942359957562670364</title>
<polygon fill="#e5e5e5" stroke="#dddddd" points="331,-377 179,-377 179,-319 331,-319 331,-377"/>
<text text-anchor="start" x="191" y="-357.2" font-family="Helvetica,sans-Serif" font-weight="bold" font-size="16.00" fill="#707070">Firewall</text>
<text text-anchor="start" x="191" y="-332.2" font-family="Helvetica,sans-Serif" font-size="16.00" fill="#383838">default&#45;allow&#45;rdp</text>
</g>
<!-- Firewall::::5942359957562670364&#45;&gt;Network::::1538262271330303271 -->
<g id="edge3" class="edge">
<title>Firewall::::5942359957562670364&#45;&gt;Network::::1538262271330303271</title>
<path fill="none" stroke="#707070" d="M331.42,-330.89C346.51,-327.47 361.97,-323.96 375.8,-320.82"/>
<polygon fill="#707070" stroke="#707070" points="376.59,-324.23 385.56,-318.61 375.04,-317.41 376.59,-324.23"/>
</g>
<!-- Firewall::::3339011543076912412 -->
<g id="node6" class="node">
<title>Firewall::::3339011543076912412</title>
<polygon fill="#e5e5e5" stroke="#dddddd" points="331,-301 179,-301 179,-243 331,-243 331,-301"/>
<text text-anchor="start" x="191" y="-281.2" font-family="Helvetica,sans-Serif" font-weight="bold" font-size="16.00" fill="#707070">Firewall</text>
<text text-anchor="start" x="191" y="-256.2" font-family="Helvetica,sans-Serif" font-size="16.00" fill="#383838">default&#45;allow&#45;ssh</text>
</g>
<!-- Firewall::::3339011543076912412&#45;&gt;Network::::1538262271330303271 -->
<g id="edge4" class="edge">
<title>Firewall::::3339011543076912412&#45;&gt;Network::::1538262271330303271</title>
<path fill="none" stroke="#707070" d="M331.42,-289.11C346.51,-292.53 361.97,-296.04 375.8,-299.18"/>
<polygon fill="#707070" stroke="#707070" points="375.04,-302.59 385.56,-301.39 376.59,-295.77 375.04,-302.59"/>
</g>
<!-- SubNetwork::::2053712691071499553 -->
<g id="node7" class="node">
<title>SubNetwork::::2053712691071499553</title>
<polygon fill="#e5e5e5" stroke="#dddddd" points="305,-225 205,-225 205,-167 305,-167 305,-225"/>
<text text-anchor="start" x="217" y="-205.2" font-family="Helvetica,sans-Serif" font-weight="bold" font-size="16.00" fill="#707070">SubNetwork</text>
<text text-anchor="start" x="217" y="-180.2" font-family="Helvetica,sans-Serif" font-size="16.00" fill="#383838">default</text>
</g>
<!-- SubNetwork::::2053712691071499553&#45;&gt;Network::::1538262271330303271 -->
<g id="edge5" class="edge">
<title>SubNetwork::::2053712691071499553&#45;&gt;Network::::1538262271330303271</title>
<path fill="none" stroke="#707070" d="M305.29,-211.47C320.31,-217.33 336.43,-224.85 350,-234 365.9,-244.72 381.07,-259.35 393.45,-272.91"/>
<polygon fill="#707070" stroke="#707070" points="391.15,-275.59 400.4,-280.74 396.38,-270.94 391.15,-275.59"/>
</g>
<!-- VmInstance::::5747070856931295133 -->
<g id="node8" class="node">
<title>VmInstance::::5747070856931295133</title>
<polygon fill="#e5e5e5" stroke="#dddddd" points="124,-149 24,-149 24,-91 124,-91 124,-149"/>
<text text-anchor="start" x="36" y="-129.2" font-family="Helvetica,sans-Serif" font-weight="bold" font-size="16.00" fill="#707070">VmInstance</text>
<text text-anchor="start" x="36" y="-104.2" font-family="Helvetica,sans-Serif" font-size="16.00" fill="#383838">web&#45;server</text>
</g>
<!-- VmInstance::::5747070856931295133&#45;&gt;Network::::1538262271330303271 -->
<g id="edge6" class="edge">
<title>VmInstance::::5747070856931295133&#45;&gt;Network::::1538262271330303271</title>
<path fill="none" stroke="#707070" d="M124.05,-94.05C183.35,-66.64 283.48,-33.55 350,-82 409.57,-125.38 421.89,-217.94 423.83,-270.81"/>
<polygon fill="#707070" stroke="#707070" points="420.33,-270.93 424.09,-280.83 427.33,-270.74 420.33,-270.93"/>
</g>
<!-- VmInstance::::5747070856931295133&#45;&gt;Disk::::3479233308945268637 -->
<g id="edge8" class="edge">
<title>VmInstance::::5747070856931295133&#45;&gt;Disk::::3479233308945268637</title>
<path fill="none" stroke="#707070" d="M124.39,-120C146.1,-120 171.79,-120 194.55,-120"/>
<polygon fill="#707070" stroke="#707070" points="194.77,-123.5 204.77,-120 194.77,-116.5 194.77,-123.5"/>
</g>
<!-- VmInstance::::5747070856931295133&#45;&gt;SubNetwork::::2053712691071499553 -->
<g id="edge7" class="edge">
<title>VmInstance::::5747070856931295133&#45;&gt;SubNetwork::::2053712691071499553</title>
<path fill="none" stroke="#707070" d="M124.31,-142.41C135.98,-147.61 148.4,-153.06 160,-158 171.37,-162.84 183.58,-167.88 195.31,-172.66"/>
<polygon fill="#707070" stroke="#707070" points="194.01,-175.9 204.59,-176.42 196.63,-169.42 194.01,-175.9"/>
</g>
</g>
</svg>
